<svg width="122" height="80" viewBox="0 0 122 80" fill="none" xmlns="http://www.w3.org/2000/svg">
<path d="M34.1814 3.76514H72.2515V17.4591C72.2515 18.4944 73.0985 19.3414 74.1338 19.3414H88.2513V22.1178H92.0159V17.8355C92.0159 17.0826 91.7336 16.3767 91.2159 15.8591L76.5808 0.847536C76.0632 0.282837 75.3103 0.000488281 74.5573 0.000488281H32.7697C31.452 0.000488281 30.4167 1.03577 30.4167 2.3534V22.1178H34.1814V3.76514ZM76.0161 5.64747L85.6631 15.5297H76.0161V5.64747Z" fill="#222222"/>
<path fill-rule="evenodd" clip-rule="evenodd" d="M88.2513 76.1875H34.1814V27.7646H30.4167V77.5993C30.4167 78.9169 31.452 79.9522 32.7697 79.9522H89.663C90.9807 79.9522 92.0159 78.9169 92.0159 77.5993V27.7646H88.2513V76.1875ZM49.24 29.7882C49.5694 30.1646 50.1812 30.2117 50.5577 29.8823C51.4047 29.1293 52.7223 28.3764 54.3223 27.7646H50.2283C49.8988 27.9999 49.6165 28.2352 49.3341 28.4705C48.9106 28.7999 48.9106 29.4117 49.24 29.7882ZM72.5338 29.8352C72.9103 29.4587 72.8632 28.847 72.4868 28.5176L71.6397 27.8117H68.0163C69.1456 28.3293 70.228 29.0352 71.2162 29.9293C71.5456 30.2117 72.1574 30.2117 72.5338 29.8352ZM53.1929 54.1643C51.9694 51.2937 51.4518 48.1409 52.6753 45.3174C54.04 42.1645 56.7223 40.7998 59.4046 40.4233C60.7693 40.2351 62.0869 40.2821 63.2163 40.4704C64.3457 40.6586 65.2398 40.988 65.6633 41.2704C67.8751 42.7292 70.1339 44.8938 69.7104 48.8467C69.6633 49.3644 70.0398 49.8349 70.5574 49.882C71.075 49.9291 71.5456 49.5526 71.5927 49.035C72.1103 44.0468 69.1927 41.2704 66.6986 39.6704C65.9457 39.1998 64.8163 38.8233 63.5457 38.588C62.2281 38.3527 60.7222 38.3057 59.1693 38.541C56.0164 39.0116 52.6753 40.6586 50.9812 44.5644C49.4753 48.0467 50.1812 51.8114 51.4988 54.8702C52.8165 57.976 54.7929 60.6113 56.1105 62.023C56.4399 62.3995 57.0517 62.4465 57.4282 62.0701C57.8046 61.7407 57.8517 61.1289 57.4752 60.7525C56.2517 59.4819 54.4164 57.0349 53.1929 54.1643ZM61.0046 33.6469C63.0751 33.5999 66.3222 34.2116 69.2398 35.9528C72.2044 37.741 74.8867 40.7527 75.7809 45.5056C76.3456 48.3761 76.1103 50.5408 75.2162 52.0467C74.3221 53.5525 72.8162 54.2114 71.3103 54.2114C69.8045 54.2114 68.2515 53.5996 67.028 52.6584C65.8045 51.6702 64.8163 50.3055 64.5339 48.6585C64.1575 46.4468 62.3222 45.1762 60.4869 45.2232C59.5458 45.2232 58.6987 45.5526 58.0399 46.2115C57.334 46.8703 56.8164 47.9056 56.7223 49.5055C56.5341 52.6114 58.4164 55.3408 60.8163 57.4113C61.9928 58.3995 63.2163 59.2466 64.2987 59.8113C65.381 60.376 66.181 60.6583 66.4633 60.7054C66.981 60.7524 67.3104 61.223 67.2633 61.7407C67.2163 62.2583 66.7457 62.5877 66.228 62.5407C65.6163 62.4465 64.5339 62.023 63.4046 61.4113C62.2752 60.7995 60.8634 59.9054 59.5928 58.776C57.0046 56.5643 54.5576 53.2702 54.84 49.3173C54.9341 47.3879 55.6399 45.8821 56.6752 44.8468C57.7105 43.8115 59.0752 43.2939 60.3928 43.2939C63.0281 43.2468 65.7575 45.0821 66.3222 48.282C66.5104 49.3644 67.2163 50.3526 68.1574 51.1055C69.0986 51.8584 70.275 52.282 71.2633 52.282C72.2515 52.282 73.0515 51.9055 73.5691 51.0114C74.1338 50.0702 74.4162 48.4232 73.8985 45.7879C73.0985 41.6939 70.7927 39.1057 68.2045 37.5528C65.5692 35.9528 62.6987 35.4351 60.9575 35.4822H60.9105C58.4164 35.3881 52.6282 36.4704 49.4753 41.1762C47.9695 43.5291 47.4518 46.4468 47.4989 49.2702C47.5459 52.0937 48.1577 54.6819 48.6753 56.1407C48.8636 56.6113 48.5812 57.129 48.1106 57.3172C47.64 57.5054 47.1224 57.2231 46.9342 56.7525C46.3695 55.1055 45.7107 52.329 45.6636 49.3173C45.6165 46.3056 46.1342 42.9644 47.9695 40.188C51.5929 34.7293 58.1811 33.5528 61.0046 33.6469ZM63.734 53.6467C65.1928 55.3408 67.828 56.7525 72.4868 56.4702C73.0044 56.4231 73.4279 56.8466 73.475 57.4113C73.475 57.929 73.0985 58.3525 72.5809 58.3995C67.4516 58.6819 64.2045 57.129 62.2752 54.9172C60.3928 52.7055 59.9222 50.0232 60.0634 48.1879C60.0634 47.6703 60.534 47.2467 61.0516 47.2938C61.5693 47.2938 61.9928 47.7644 61.9457 48.282C61.8516 49.7408 62.2281 51.9055 63.734 53.6467ZM45.5695 39.2939C45.3342 39.7645 44.7224 39.9057 44.2989 39.6233C43.8283 39.341 43.6872 38.7763 43.9695 38.3527C45.8518 35.294 51.9694 29.4117 61.9457 29.4117C70.4162 29.4117 76.2985 35.341 78.2749 38.3057C78.5573 38.7292 78.4161 39.341 77.9926 39.6233C77.5691 39.9057 76.9573 39.7645 76.675 39.341C74.8868 36.6586 69.5221 31.294 61.9457 31.294C52.7223 31.294 47.1695 36.7057 45.5695 39.2939Z" fill="#B7B7B7"/>
<path d="M88.2512 22.1177H0.77002V27.7647H121.239V22.1177H88.2512Z" fill="white"/>
</svg>
