<svg width="16" height="17" viewBox="0 0 16 17" fill="none" xmlns="http://www.w3.org/2000/svg">
<path d="M9.33332 14.5V15.1667H8.66666V15.8333H7.33332V15.1667H6.66666V14.5H9.33332Z" fill="white"/>
<path d="M8.66668 3.16675H7.33334V3.83341H8.66668V3.16675Z" fill="white"/>
<path d="M7.33332 3.83325H6.66666V4.49992H7.33332V3.83325Z" fill="white"/>
<path d="M12.6667 5.16675V3.83341H12V3.16675H11.3333V2.50008H10.6667V1.83341H9.33332V1.16675H6.66666V1.83341H5.33332V2.50008H4.66666V3.16675H3.99999V3.83341H3.33332V5.16675H2.66666V7.83341H3.33332V9.16675H3.99999V9.83341H4.66666V10.5001H5.33332V11.1667H5.99999V13.8334H9.99999V11.1667H10.6667V10.5001H11.3333V9.83341H12V9.16675H12.6667V7.83341H13.3333V5.16675H12.6667ZM12 7.83341H11.3333V9.16675H10.6667V9.83341H9.99999V10.5001H9.33332V11.1667H6.66666V10.5001H5.99999V9.83341H5.33332V9.16675H4.66666V7.83341H3.99999V5.16675H4.66666V3.83341H5.33332V3.16675H6.66666V2.50008H9.33332V3.16675H10.6667V3.83341H11.3333V5.16675H12V7.83341Z" fill="white"/>
<path d="M6.66667 4.5H6V5.16667H6.66667V4.5Z" fill="white"/>
<path d="M6.00001 5.16675H5.33334V6.50008H6.00001V5.16675Z" fill="white"/>
</svg>
